<?xml version="1.0" encoding="utf-8"?>
<!-- Generator: Adobe Illustrator 15.1.0, SVG Export Plug-In  -->
<!DOCTYPE svg PUBLIC "-//W3C//DTD SVG 1.1//EN" "http://www.w3.org/Graphics/SVG/1.1/DTD/svg11.dtd" [
	<!ENTITY ns_flows "http://ns.adobe.com/Flows/1.0/">
]>
<svg version="1.1"
	 xmlns="http://www.w3.org/2000/svg" xmlns:xlink="http://www.w3.org/1999/xlink" xmlns:a="http://ns.adobe.com/AdobeSVGViewerExtensions/3.0/"
	 x="0px" y="0px" width="360px" height="240px" viewBox="-30.457 -31.917 360 240"
	 overflow="visible" enable-background="new -30.457 -31.917 360 240" xml:space="preserve">
<defs>
</defs>
<path fill-rule="evenodd" clip-rule="evenodd" fill="#FFFFFF" d="M80.314,38.783C55.197,55.078,45.47,80.937,42.899,89.22
	c3.376-2.146,10.229-5.625,19.188-5.625c8.936,0,15.202,3.463,18.227,5.611V38.783z"/>
<path fill-rule="evenodd" clip-rule="evenodd" fill="#FFFFFF" d="M86.66,35.499c27.913,18.237,37.34,47.023,39.26,53.938
	c2.833-2.117,9.123-5.842,18.397-5.842c12.945,0,20.463,7.273,20.463,7.273S148.09,40.503,86.66,35.499z"/>
<path fill-rule="evenodd" clip-rule="evenodd" fill="#6BC8C4" d="M77.706,35.529C16.613,40.722,0,90.868,0,90.868
	s7.521-7.273,20.463-7.273c8.936,0,15.118,3.465,18.091,5.613C40.608,81.92,50.118,53.575,77.706,35.529z"/>
<path fill-rule="evenodd" clip-rule="evenodd" fill="#6BC8C4" d="M84.466,39.031v50.177c3.025-2.147,9.291-5.613,18.227-5.613
	c8.577,0,15.21,3.188,18.726,5.341C118.724,80.407,108.993,55.141,84.466,39.031z"/>
<path fill="#ED1C24" d="M148.07,106.769c-9.38,0-16.345,6.215-18.103,14.398c-0.022,0.081-2.697,12.787-11.771,12.787
	c-4.366,0-8.084-2.778-8.672-9.36c-0.462-4.901,1.257-10.536,4.838-10.536c1.854,0,3.043,1.857,3.043,4.574
	c0,1.326-0.264,2.121,0.067,2.717c0.264,0.397,1.77,1.123,3.954,1.123c3.905,0,6.493-3.443,6.428-6.626
	c0-6.294-6.596-9.276-14.023-9.276c-10.138,0.464-17.56,8.35-17.56,18.024c0,10.008,8.097,17.985,18.091,18.095
	c4.54,0,8.982-1.603,13.005-5.625c1.553-1.554,2.665-3.438,3.524-5.45c2.646,6.594,9.088,11.209,17.179,11.209
	c10.868,0,18.557-8.02,18.622-18.026C166.627,114.857,158.742,106.769,148.07,106.769z M148.07,135.333
	c-3.845,0-5.499-4.97-5.434-10.536c-0.065-5.7,1.524-10.536,5.434-10.536c3.847,0,5.503,4.836,5.567,10.536
	C153.573,130.627,152.044,135.333,148.07,135.333z"/>
<path fill="#ED1C24" d="M201.021,132.02c0,8.018-9.542,10.804-17.097,10.804c-5.896,0-15.573-2.057-15.573-8.616
	c0-3.248,2.586-5.062,6.426-5.062c2.186,0,4.708,0.596,4.972,1.127c0.399,0.597,0.128,1.458,0.128,2.717
	c0,1.738,1.657,3.074,3.913,3.074c2.452,0,3.515-1.194,3.579-2.982c-0.132-3.182-4.572-3.911-9.478-5.499
	c-4.505-1.592-8.947-4.775-9.011-10.007c0-0.069,0-0.138,0-0.203c0-6.892,8.147-10.801,14.909-10.801
	c7.754,0,15.64,2.717,15.64,8.613c0.071,3.182-2.317,5.238-6.426,5.238c-2.321,0-4.505-0.73-4.772-1.192
	c-0.329-0.531-0.065-1.395-0.065-2.717c0-1.841-1.127-3.315-3.384-3.248c-2.05,0.069-3.11,1.857-3.11,3.116
	c0,3.247,3.911,4.106,8.481,5.435C195.457,123.339,201.021,125.989,201.021,132.02z"/>
<path fill="#ED1C24" d="M268.229,138.658c-8.234-6.785-9.212-17.99-2.796-25.668c6.277-7.709,17.501-8.932,25.735-2.143
	s9.171,18.046,2.897,25.755C287.646,144.281,276.614,145.576,268.229,138.658z M272.992,132.883
	c3.068,2.529,7.241-0.129,11.003-4.586c3.574-4.439,5.373-9.226,2.408-11.671c-3.017-2.486-7.321,0.231-10.898,4.672
	C271.914,125.549,270.028,130.438,272.992,132.883z"/>
<path fill="#ED1C24" d="M265.322,140.096c-0.73,2.056-4.5,9.039-11.578,9.039c-5.301,0-9.741-3.844-9.741-10.075v-19.306
	c0-6.626-6.23-4.309-6.23,3.514v1.192c0,1.326,0.462,11.464,0.462,12.192c0,4.773-4.506,5.966-7.026,6.032h-0.062
	c-2.522-0.066-6.959-1.259-6.959-6.032c0-0.529,0.197-10.667,0.197-12.192c0.07-1.59,0-3.249,0-4.707
	c0-6.626-6.229-4.309-6.229,3.514c0,2.121,0.328,12.657,0.328,13.384c0,4.773-4.505,5.966-7.02,6.032h-0.068
	c-2.517-0.066-6.959-1.259-6.959-6.032c0-0.264,0-1.056,0.066-2.052c0.136-4.706,0.266-13.628,0.266-16.213
	c0-10.536-4.371-8.283-3.779-10.072c0.6-2.121,4.412-4.347,8.248-4.347c8.405,0,8.151,8.384,8.151,10.085h0.128
	c2.719-5.369,5.114-9.311,11.107-9.311c5.994,0,7.49,4.672,8.683,9.311h0.198c2.786-5.432,4.688-9.311,10.741-9.311
	s9.146,6.197,9.146,12.823v16.789C257.392,144.894,265.987,138.24,265.322,140.096z"/>
<polygon fill="#6BC8C4" points="78.789,171.405 78.789,151.226 80.598,151.226 80.598,93.395 82.269,94.605 84.073,93.441 
	84.073,151.226 85.841,151.226 85.841,171.405 "/>
<path fill-rule="evenodd" clip-rule="evenodd" fill="#ED1C24" d="M79.862,5.27c0,0-1.129-0.136-2.164-0.065
	c-1.034,0.071-2.567,1.308-3.015,3.672c-0.448,2.364,0.393,3.672,0.59,5.179c0.197,1.506,0.732,4.307-2.313,10.027
	c-3.045,5.72-10.013,7.478-10.013,7.478s-0.089,2.007-0.233,2.275c-0.144,0.268-0.412,0.205-0.412,0.576s0.906,3.642,0.906,3.642
	s1.387-0.195,1.74-0.102c0.353,0.093,0.359,0.428,0.359,0.428s2.145-0.324,2.492,0.59c-0.6-0.196-0.576-0.097-0.683,0.134
	c-0.107,0.231-0.164,0.19-0.432,0.259c-0.268,0.069-0.884-0.27-1.459-0.383c-0.576-0.113-1.558,0.057-1.558,0.057l0.264,0.458
	c0,0,1.582-0.594,1.9,0.132c-0.493-0.085-0.655,0.458-0.655,0.458s3.147,0.211,3.147,1.245c-0.422-0.329-0.525,0.067-0.876,0.223
	c-0.351,0.156-2.044-1.233-3.319-0.746c-0.671,0.259,1.434,1.894,0.852,2.229c-1.296,0.562-1.275-2.135-2.032-2.295
	c-1.47-0.225-2.322,0.558-2.885,0.328c-0.564-0.229-0.787,0.132-0.787,0.132s-0.053-0.697,0.458-0.983
	c0.511-0.286,2.166-0.148,2.36-0.59s-0.552-0.774-1.574-0.787s-1.807,0.359-2.189,0.28c-0.383-0.079-0.564,0.178-0.564,0.178
	s-0.259-0.616,0.525-0.852s2.609-0.105,2.622-0.787s-1.188-3.374-1.188-3.374s-0.194-0.033-0.551-0.26s-0.817-1.744-0.817-1.744
	s-2.525,0.122-4.763-0.333c-2.239-0.454-3.562-1.044-3.562-1.044s-6.959,5.404-9.834,7.212c-2.875,1.809-7.068,2.31-7.934,1.771
	c-0.866-0.54,2.794-2.636,4.852-4.262c2.058-1.626,3.737-3.541,3.737-3.541s-0.649-0.02-0.59-0.458
	c0.353-0.345,2.425-2.295,2.425-2.295s-0.426-0.065-0.327-0.329c0.765-0.56,1.835-1.573,1.835-1.573s-0.412-0.181-0.197-0.523
	c0.854-0.438,3.541-2.82,3.541-2.82s-0.053-0.787,0.264-1.113c0.383-0.209,2.151-1.474,4.457-3.476
	c2.306-2.001,3.054-3.956,6.754-6.229c3.701-2.273,6.377-1.697,7.446-3.796c1.068-2.099,1.855-3.997,2.388-4.858
	c0.534-0.862,1.213-1.237,1.521-1.728s1.073-2.155,3.725-2.271c2.652-0.116,3.599,2.395,3.599,2.395s0.01-0.006,0.334,0.163
	c0.325,0.168,0.59,0.72,0.59,0.72S79.933,4.443,79.862,5.27z"/>
<path opacity="0.6" fill-rule="evenodd" clip-rule="evenodd" fill="#6BC8C4" d="M80.314,38.783
	C55.197,55.078,45.47,80.937,42.899,89.22c3.376-2.146,10.229-5.625,19.188-5.625c8.936,0,15.202,3.463,18.227,5.611V38.783z"/>
<path opacity="0.6" fill-rule="evenodd" clip-rule="evenodd" fill="#6BC8C4" d="M86.66,35.499
	c27.913,18.237,37.34,47.023,39.26,53.938c2.833-2.117,9.123-5.842,18.397-5.842c12.945,0,20.463,7.273,20.463,7.273
	S148.09,40.503,86.66,35.499z"/>
<path fill-rule="evenodd" clip-rule="evenodd" fill="#ED1C24" d="M104.295,29.969c1.547-1.493,3.427-6.669,4-7.736
	c0.574-1.066,2.772-4.011,0.852-7.016c-1.92-3.005-3.1-3.751-4.262-6.687c-1.162-2.936-0.728-7.393-4.406-8.344
	c-3.678-0.951-3.984,1.993-3.658,2.77c-0.452,0.302-0.326,0.854-0.326,0.854s-0.971,0.412-0.722,1.639
	c0.25-0.071,0.604-0.85,1.574-0.655c0.969,0.195,1.618,1.361,0.839,4.39c-0.778,3.029-1.231,3.337-2.281,4.329
	c-1.914,1.381-4.339,6.614-4.424,7.999c-1.21,0.606-1.934,0.219-2.395,0.197c0.104,1.059,2.032,1.245,2.032,1.245
	s-0.199,0.592-0.523,0.722c0.152,0.347,0.523,0.132,0.523,0.132s0.959,3.804,3.344,6.162c0.091,1.146,0.176,1.369,0.264,2.425
	c0.087,1.057,0.75,1.985,0.852,2.624c0.101,0.639,0.085,0.655-0.073,1.375c-0.158,0.72-0.582,0.963-0.778,0.909
	c-0.197-0.055-1.081-0.347-1.428,0.649c0,0,0.345-0.434,0.779-0.217c0.823,0.434,1.809,0.17,2.484,0.432
	c0.675,0.262,0.734,0.412,1.18,1.18c0.749-0.227,0.262-1.048,0.262-1.048s0.749,0.048,1.18,0.197c0.432,0.148,0.543,0.371,1.05,0
	c0,0-0.663,0.626-0.316,0.841c0,0,0.047-0.312,0.651-0.308c0.604,0.004,1.061-0.183,1.383-0.558
	c0.775,0.766,0.521,0.693,1.255,1.385s0.389,0.769,0.304,1.196c0.3-0.116,0.709-0.734,0.657-1.247
	c-0.053-0.513-0.525-0.983-0.525-0.983s1.555,0.43,2.159,0.126c0.345-0.217,0.649,0.129,0.649,0.129s-0.122-0.604-0.709-0.778
	c-0.588-0.174-2.06-0.142-2.557-0.59c-0.497-0.448-0.855-0.697-0.931-2.309c-0.037-0.791,0.071-0.509,0.477-1.558
	C103.149,32.751,103.695,30.223,104.295,29.969z M101.213,36.869c-0.172,0.734-1.427,0.951-1.427,0.951s0.044-0.262-0.734-0.217
	c-0.778,0.044-1.687-0.087-1.946-0.26c-0.26-0.172-0.649-1.125-0.649-1.427c0-0.302,0.085-0.475,0.215-0.821s1.101-2.95,1.101-4.619
	c0,0,1.541,0.406,2.411,0.037c0.061,1.176,0.122,1.121,0.251,2.289c0.13,1.168,0.13,1.687,0.606,2.034
	C101.343,35.008,101.385,36.135,101.213,36.869z"/>
</svg>
