<?xml version="1.0" encoding="utf-8"?>
<!-- Generator: Adobe Illustrator 18.0.0, SVG Export Plug-In . SVG Version: 6.00 Build 0)  -->
<!DOCTYPE svg PUBLIC "-//W3C//DTD SVG 1.1//EN" "http://www.w3.org/Graphics/SVG/1.1/DTD/svg11.dtd">
<svg version="1.1" id="Layer_1" xmlns="http://www.w3.org/2000/svg" xmlns:xlink="http://www.w3.org/1999/xlink" x="0px" y="0px"
	 viewBox="91 97 212 57" enable-background="new 91 97 212 57" xml:space="preserve">
<path fill="#ED1C24" d="M148.1,106.8c-9.4,0-16.3,6.2-18.1,14.4c0,0.1-2.7,12.8-11.8,12.8c-4.4,0-8.1-2.8-8.7-9.4
	c-0.5-4.9,1.3-10.5,4.8-10.5c1.9,0,3,1.9,3,4.6c0,1.3-0.3,2.1,0.1,2.7c0.3,0.4,1.8,1.1,4,1.1c3.9,0,6.5-3.4,6.4-6.6
	c0-6.3-6.6-9.3-14-9.3c-10.1,0.5-17.6,8.3-17.6,18c0,10,8.1,18,18.1,18.1c4.5,0,9-1.6,13-5.6c1.6-1.6,2.7-3.4,3.5-5.4
	c2.6,6.6,9.1,11.2,17.2,11.2c10.9,0,18.6-8,18.6-18C166.6,114.9,158.7,106.8,148.1,106.8z M148.1,135.3c-3.8,0-5.5-5-5.4-10.5
	c-0.1-5.7,1.5-10.5,5.4-10.5c3.8,0,5.5,4.8,5.6,10.5C153.6,130.6,152,135.3,148.1,135.3z"/>
<path fill="#ED1C24" d="M201,132c0,8-9.5,10.8-17.1,10.8c-5.9,0-15.6-2.1-15.6-8.6c0-3.2,2.6-5.1,6.4-5.1c2.2,0,4.7,0.6,5,1.1
	c0.4,0.6,0.1,1.5,0.1,2.7c0,1.7,1.7,3.1,3.9,3.1c2.5,0,3.5-1.2,3.6-3c-0.1-3.2-4.6-3.9-9.5-5.5c-4.5-1.6-8.9-4.8-9-10
	c0-0.1,0-0.1,0-0.2c0-6.9,8.1-10.8,14.9-10.8c7.8,0,15.6,2.7,15.6,8.6c0.1,3.2-2.3,5.2-6.4,5.2c-2.3,0-4.5-0.7-4.8-1.2
	c-0.3-0.5-0.1-1.4-0.1-2.7c0-1.8-1.1-3.3-3.4-3.2c-2.1,0.1-3.1,1.9-3.1,3.1c0,3.2,3.9,4.1,8.5,5.4C195.5,123.3,201,126,201,132z"/>
<path fill="#ED1C24" d="M268.2,138.7c-8.2-6.8-9.2-18-2.8-25.7c6.3-7.7,17.5-8.9,25.7-2.1s9.2,18,2.9,25.8
	C287.6,144.3,276.6,145.6,268.2,138.7z M273,132.9c3.1,2.5,7.2-0.1,11-4.6c3.6-4.4,5.4-9.2,2.4-11.7c-3-2.5-7.3,0.2-10.9,4.7
	C271.9,125.5,270,130.4,273,132.9z"/>
<path fill="#ED1C24" d="M265.3,140.1c-0.7,2.1-4.5,9-11.6,9c-5.3,0-9.7-3.8-9.7-10.1v-19.3c0-6.6-6.2-4.3-6.2,3.5v1.2
	c0,1.3,0.5,11.5,0.5,12.2c0,4.8-4.5,6-7,6h-0.1c-2.5-0.1-7-1.3-7-6c0-0.5,0.2-10.7,0.2-12.2c0.1-1.6,0-3.2,0-4.7
	c0-6.6-6.2-4.3-6.2,3.5c0,2.1,0.3,12.7,0.3,13.4c0,4.8-4.5,6-7,6h-0.1c-2.5-0.1-7-1.3-7-6c0-0.3,0-1.1,0.1-2.1
	c0.1-4.7,0.3-13.6,0.3-16.2c0-10.5-4.4-8.3-3.8-10.1c0.6-2.1,4.4-4.3,8.2-4.3c8.4,0,8.2,8.4,8.2,10.1h0.1c2.7-5.4,5.1-9.3,11.1-9.3
	c6,0,7.5,4.7,8.7,9.3h0.2c2.8-5.4,4.7-9.3,10.7-9.3s9.1,6.2,9.1,12.8v16.8C257.4,144.9,266,138.2,265.3,140.1z"/>
</svg>
